<?xml version="1.0" encoding="UTF-8" standalone="no"?>
<!DOCTYPE svg PUBLIC "-//W3C//DTD SVG 1.1//EN" "http://www.w3.org/Graphics/SVG/1.1/DTD/svg11.dtd">
<svg width="100%" height="100%" viewBox="0 0 569 580" version="1.1" xmlns="http://www.w3.org/2000/svg" xmlns:xlink="http://www.w3.org/1999/xlink" xml:space="preserve" xmlns:serif="http://www.serif.com/" style="fill-rule:evenodd;clip-rule:evenodd;stroke-linecap:round;stroke-linejoin:round;stroke-miterlimit:1.5;">
    <g transform="matrix(1,0,0,1,-1365.56,-401.779)">
        <g id="Juice" transform="matrix(1.09376,0,0,1.09376,-15.4723,62.4755)">
            <g transform="matrix(1,0,0,1.2294,-126.339,-518.57)">
                <path d="M1840.09,728.044L1840.09,998.394C1840.09,1048.13 1799.71,1088.51 1749.97,1088.51L1548.13,1088.51C1498.39,1088.51 1458.01,1048.13 1458.01,998.394L1458.01,728.044L1840.09,728.044Z" style="fill:rgb(80,80,80);stroke:black;stroke-width:37.18px;"/>
            </g>
            <g transform="matrix(1.70866,0,0,1.70866,-1176.63,-927.528)">
                <text x="1509.23px" y="874.225px" style="font-family:'BerlinSansFBDemi-Bold', 'Berlin Sans FB Demi', sans-serif;font-weight:700;font-size:37.056px;fill:white;">KARROT</text>
                <text x="1509.23px" y="911.281px" style="font-family:'BerlinSansFBDemi-Bold', 'Berlin Sans FB Demi', sans-serif;font-weight:700;font-size:37.056px;fill:white;">JUICE</text>
            </g>
            <g transform="matrix(0.838474,0,0,0.662706,151.918,-29.0334)">
                <path d="M1889.63,579.29C1889.63,561.283 1878.08,546.664 1863.84,546.664L1405.89,546.664C1391.66,546.664 1380.1,561.283 1380.1,579.29C1380.1,597.297 1391.66,611.917 1405.89,611.917L1863.84,611.917C1878.08,611.917 1889.63,597.297 1889.63,579.29Z" style="stroke:black;stroke-width:55.14px;"/>
            </g>
            <g transform="matrix(1,0,0,1,-117.288,-294.495)">
                <path d="M1599.94,604.714L1599.94,740.838C1599.94,755.926 1587.69,768.176 1572.6,768.176C1560.49,768.176 1550.21,760.28 1546.62,749.36C1543.47,754.021 1538.14,757.088 1532.1,757.088C1522.43,757.088 1514.58,749.239 1514.58,739.57L1514.58,604.714L1599.94,604.714Z" style="fill:rgb(255,159,0);"/>
            </g>
            <g transform="matrix(1,0,0,0.744577,-127.29,-91.3089)">
                <path d="M1420.44,815.921L1398.05,838.315C1398.05,838.315 1448.46,1090.27 1650,1090.27C1851.54,1090.27 1901.95,838.315 1901.95,838.315L1879.56,815.921" style="fill:none;stroke:rgb(141,141,141);stroke-width:18.38px;"/>
            </g>
            <g transform="matrix(1.04972,0,0,1,-186.625,-311.945)">
                <path d="M1436.39,797.466C1436.39,793.599 1433.4,790.46 1429.71,790.46L1416.37,790.46C1412.68,790.46 1409.69,793.599 1409.69,797.466L1409.69,858.838C1409.69,862.704 1412.68,865.843 1416.37,865.843L1429.71,865.843C1433.4,865.843 1436.39,862.704 1436.39,858.838L1436.39,797.466Z"/>
            </g>
            <g transform="matrix(1.04972,0,0,1,244.469,-311.945)">
                <path d="M1436.39,797.466C1436.39,793.599 1433.4,790.46 1429.71,790.46L1416.37,790.46C1412.68,790.46 1409.69,793.599 1409.69,797.466L1409.69,858.838C1409.69,862.704 1412.68,865.843 1416.37,865.843L1429.71,865.843C1433.4,865.843 1436.39,862.704 1436.39,858.838L1436.39,797.466Z"/>
            </g>
        </g>
    </g>
</svg>
