<?xml version="1.0" encoding="UTF-8" standalone="no"?>
<!DOCTYPE svg PUBLIC "-//W3C//DTD SVG 1.1//EN" "http://www.w3.org/Graphics/SVG/1.1/DTD/svg11.dtd">
<svg width="100%" height="100%" viewBox="0 0 2000 500" version="1.1" xmlns="http://www.w3.org/2000/svg" xmlns:xlink="http://www.w3.org/1999/xlink" xml:space="preserve" xmlns:serif="http://www.serif.com/" style="fill-rule:evenodd;clip-rule:evenodd;stroke-linejoin:round;stroke-miterlimit:2;">
    <g transform="matrix(0.76733,0,0,0.76733,-71.8,51.9077)">
        <g transform="matrix(638.931,0,0,638.931,87.3016,471.561)">
            <path d="M0.289,-0.15C0.332,-0.15 0.372,-0.161 0.41,-0.182C0.448,-0.203 0.478,-0.232 0.499,-0.269L0.612,-0.155C0.591,-0.118 0.562,-0.089 0.524,-0.068C0.487,-0.047 0.447,-0.037 0.404,-0.037C0.372,-0.037 0.343,-0.042 0.317,-0.053C0.291,-0.064 0.267,-0.078 0.245,-0.095C0.223,-0.112 0.202,-0.132 0.182,-0.153C0.162,-0.174 0.142,-0.196 0.12,-0.217C0.143,-0.196 0.169,-0.179 0.198,-0.168C0.228,-0.156 0.258,-0.15 0.289,-0.15ZM0.201,-0.193C0.161,-0.211 0.129,-0.238 0.104,-0.275C0.08,-0.311 0.068,-0.351 0.068,-0.395C0.068,-0.425 0.074,-0.453 0.086,-0.48C0.097,-0.507 0.113,-0.53 0.133,-0.55C0.153,-0.57 0.176,-0.586 0.202,-0.598C0.229,-0.609 0.257,-0.615 0.287,-0.615C0.324,-0.615 0.358,-0.607 0.391,-0.59C0.423,-0.573 0.45,-0.55 0.471,-0.521L0.5,-0.521C0.495,-0.529 0.489,-0.537 0.484,-0.545C0.479,-0.552 0.473,-0.559 0.466,-0.566C0.491,-0.541 0.517,-0.515 0.544,-0.49C0.571,-0.465 0.594,-0.437 0.613,-0.407L0.585,-0.407C0.571,-0.422 0.558,-0.435 0.545,-0.447C0.532,-0.458 0.519,-0.468 0.505,-0.476C0.492,-0.485 0.477,-0.491 0.461,-0.496C0.445,-0.5 0.426,-0.502 0.405,-0.502C0.374,-0.502 0.345,-0.496 0.319,-0.485C0.292,-0.474 0.268,-0.458 0.248,-0.438C0.227,-0.418 0.211,-0.395 0.2,-0.368C0.188,-0.341 0.182,-0.312 0.182,-0.281C0.182,-0.252 0.188,-0.222 0.201,-0.193Z" style="fill:rgb(0,136,36);fill-rule:nonzero;"/>
        </g>
        <g transform="matrix(638.931,0,0,638.931,526.886,471.561)">
            <path d="M0.66,-0.278C0.66,-0.244 0.654,-0.212 0.641,-0.182C0.628,-0.152 0.611,-0.126 0.589,-0.104C0.566,-0.082 0.54,-0.065 0.511,-0.051C0.481,-0.039 0.449,-0.032 0.415,-0.032C0.383,-0.032 0.353,-0.038 0.327,-0.049C0.301,-0.06 0.277,-0.075 0.255,-0.093C0.233,-0.11 0.211,-0.13 0.191,-0.152C0.171,-0.174 0.15,-0.196 0.128,-0.217C0.152,-0.194 0.178,-0.176 0.208,-0.164C0.237,-0.151 0.269,-0.145 0.301,-0.145C0.335,-0.145 0.367,-0.152 0.397,-0.165C0.426,-0.178 0.452,-0.195 0.474,-0.217C0.496,-0.239 0.514,-0.265 0.527,-0.295C0.54,-0.324 0.546,-0.356 0.546,-0.39C0.546,-0.422 0.54,-0.453 0.528,-0.482C0.516,-0.511 0.499,-0.538 0.477,-0.561C0.498,-0.54 0.52,-0.519 0.542,-0.499C0.563,-0.479 0.583,-0.458 0.601,-0.436C0.618,-0.414 0.632,-0.39 0.644,-0.365C0.655,-0.34 0.66,-0.311 0.66,-0.278ZM0.213,-0.188C0.193,-0.197 0.175,-0.208 0.159,-0.222C0.142,-0.236 0.128,-0.252 0.117,-0.27C0.105,-0.287 0.096,-0.306 0.09,-0.327C0.083,-0.347 0.08,-0.368 0.08,-0.39C0.08,-0.421 0.086,-0.449 0.098,-0.476C0.109,-0.503 0.125,-0.526 0.145,-0.546C0.165,-0.566 0.188,-0.582 0.215,-0.594C0.242,-0.605 0.27,-0.611 0.301,-0.611C0.322,-0.611 0.343,-0.608 0.364,-0.602C0.385,-0.595 0.404,-0.586 0.422,-0.575C0.44,-0.563 0.456,-0.549 0.47,-0.533C0.484,-0.516 0.495,-0.498 0.503,-0.478C0.474,-0.491 0.445,-0.498 0.413,-0.498C0.384,-0.498 0.356,-0.492 0.33,-0.48C0.303,-0.468 0.28,-0.452 0.26,-0.432C0.24,-0.412 0.224,-0.389 0.212,-0.362C0.2,-0.335 0.194,-0.307 0.194,-0.278C0.194,-0.247 0.2,-0.217 0.213,-0.188Z" style="fill:rgb(0,136,36);fill-rule:nonzero;"/>
        </g>
        <g transform="matrix(638.931,0,0,638.931,993.945,471.561)">
            <path d="M0.575,-0.522L0.575,-0.226C0.575,-0.197 0.569,-0.17 0.558,-0.147C0.547,-0.123 0.533,-0.102 0.515,-0.086C0.497,-0.069 0.476,-0.055 0.452,-0.046C0.429,-0.037 0.404,-0.032 0.38,-0.032C0.355,-0.032 0.33,-0.037 0.306,-0.047C0.281,-0.056 0.259,-0.072 0.238,-0.093L0.129,-0.202C0.147,-0.184 0.167,-0.17 0.19,-0.161C0.214,-0.151 0.239,-0.146 0.266,-0.146C0.293,-0.146 0.318,-0.151 0.342,-0.162C0.365,-0.172 0.386,-0.186 0.404,-0.203C0.421,-0.22 0.435,-0.241 0.446,-0.265C0.456,-0.288 0.461,-0.313 0.461,-0.34L0.461,-0.636L0.575,-0.522ZM0.217,-0.177C0.2,-0.182 0.183,-0.19 0.169,-0.201C0.154,-0.212 0.141,-0.224 0.13,-0.238C0.12,-0.252 0.111,-0.268 0.105,-0.285C0.099,-0.303 0.096,-0.321 0.096,-0.34L0.096,-0.636L0.21,-0.522L0.21,-0.226C0.21,-0.209 0.212,-0.192 0.217,-0.177Z" style="fill:rgb(0,136,36);fill-rule:nonzero;"/>
        </g>
        <g transform="matrix(638.931,0,0,638.931,1420.11,471.561)">
            <path d="M0.534,-0.394C0.534,-0.377 0.531,-0.362 0.525,-0.348C0.519,-0.334 0.511,-0.321 0.5,-0.311C0.489,-0.3 0.477,-0.292 0.463,-0.286C0.448,-0.28 0.433,-0.277 0.416,-0.277L0.282,-0.277L0.253,-0.276L0.22,-0.276L0.22,-0.032L0.196,-0.032L0.081,-0.145L0.106,-0.145L0.106,-0.389L0.303,-0.389C0.32,-0.389 0.336,-0.392 0.35,-0.399C0.365,-0.406 0.377,-0.414 0.388,-0.426C0.398,-0.437 0.406,-0.45 0.411,-0.465C0.417,-0.48 0.42,-0.495 0.42,-0.512C0.42,-0.539 0.412,-0.564 0.397,-0.585C0.399,-0.583 0.405,-0.577 0.416,-0.566L0.483,-0.5C0.492,-0.491 0.498,-0.486 0.499,-0.485L0.5,-0.483C0.511,-0.468 0.52,-0.455 0.526,-0.442C0.531,-0.429 0.534,-0.413 0.534,-0.394ZM0.224,-0.497L0.109,-0.61L0.299,-0.61C0.329,-0.61 0.353,-0.6 0.371,-0.58C0.388,-0.56 0.397,-0.536 0.397,-0.508C0.397,-0.503 0.397,-0.5 0.396,-0.497L0.224,-0.497Z" style="fill:rgb(0,136,36);fill-rule:nonzero;"/>
        </g>
        <g transform="matrix(638.931,0,0,638.931,1811.14,471.561)">
            <path d="M0.66,-0.278C0.66,-0.244 0.654,-0.212 0.641,-0.182C0.628,-0.152 0.611,-0.126 0.589,-0.104C0.566,-0.082 0.54,-0.065 0.511,-0.051C0.481,-0.039 0.449,-0.032 0.415,-0.032C0.383,-0.032 0.353,-0.038 0.327,-0.049C0.301,-0.06 0.277,-0.075 0.255,-0.093C0.233,-0.11 0.211,-0.13 0.191,-0.152C0.171,-0.174 0.15,-0.196 0.128,-0.217C0.152,-0.194 0.178,-0.176 0.208,-0.164C0.237,-0.151 0.269,-0.145 0.301,-0.145C0.335,-0.145 0.367,-0.152 0.397,-0.165C0.426,-0.178 0.452,-0.195 0.474,-0.217C0.496,-0.239 0.514,-0.265 0.527,-0.295C0.54,-0.324 0.546,-0.356 0.546,-0.39C0.546,-0.422 0.54,-0.453 0.528,-0.482C0.516,-0.511 0.499,-0.538 0.477,-0.561C0.498,-0.54 0.52,-0.519 0.542,-0.499C0.563,-0.479 0.583,-0.458 0.601,-0.436C0.618,-0.414 0.632,-0.39 0.644,-0.365C0.655,-0.34 0.66,-0.311 0.66,-0.278ZM0.213,-0.188C0.193,-0.197 0.175,-0.208 0.159,-0.222C0.142,-0.236 0.128,-0.252 0.117,-0.27C0.105,-0.287 0.096,-0.306 0.09,-0.327C0.083,-0.347 0.08,-0.368 0.08,-0.39C0.08,-0.421 0.086,-0.449 0.098,-0.476C0.109,-0.503 0.125,-0.526 0.145,-0.546C0.165,-0.566 0.188,-0.582 0.215,-0.594C0.242,-0.605 0.27,-0.611 0.301,-0.611C0.322,-0.611 0.343,-0.608 0.364,-0.602C0.385,-0.595 0.404,-0.586 0.422,-0.575C0.44,-0.563 0.456,-0.549 0.47,-0.533C0.484,-0.516 0.495,-0.498 0.503,-0.478C0.474,-0.491 0.445,-0.498 0.413,-0.498C0.384,-0.498 0.356,-0.492 0.33,-0.48C0.303,-0.468 0.28,-0.452 0.26,-0.432C0.24,-0.412 0.224,-0.389 0.212,-0.362C0.2,-0.335 0.194,-0.307 0.194,-0.278C0.194,-0.247 0.2,-0.217 0.213,-0.188Z" style="fill:rgb(0,136,36);fill-rule:nonzero;"/>
        </g>
        <g transform="matrix(638.931,0,0,638.931,2278.2,471.561)">
            <path d="M0.488,-0.636L0.602,-0.522L0.602,-0.032L0.578,-0.032L0.464,-0.146L0.488,-0.146L0.488,-0.636ZM0.107,-0.596L0.221,-0.452L0.221,-0.032L0.197,-0.032L0.083,-0.146L0.107,-0.146L0.107,-0.596ZM0.464,-0.215L0.464,-0.185L0.107,-0.636C0.144,-0.605 0.178,-0.57 0.21,-0.533C0.241,-0.495 0.272,-0.457 0.302,-0.42L0.464,-0.215Z" style="fill:rgb(0,136,36);fill-rule:nonzero;"/>
        </g>
    </g>
</svg>
