<?xml version="1.0" encoding="UTF-8" standalone="no"?>
<!DOCTYPE svg PUBLIC "-//W3C//DTD SVG 1.1//EN" "http://www.w3.org/Graphics/SVG/1.1/DTD/svg11.dtd">
<svg width="100%" height="100%" viewBox="0 0 3000 3000" version="1.1" xmlns="http://www.w3.org/2000/svg" xmlns:xlink="http://www.w3.org/1999/xlink" xml:space="preserve" xmlns:serif="http://www.serif.com/" style="fill-rule:evenodd;clip-rule:evenodd;stroke-linejoin:round;stroke-miterlimit:2;">
    <rect x="0" y="0" width="3000" height="3000"/>
    <g transform="matrix(1.12308,0,0,1.12308,-184.624,-184.624)">
        <g>
            <g transform="matrix(3.53601,0,0,1.4481,-1546.69,-137.627)">
                <ellipse cx="861.499" cy="1130.88" rx="80.051" ry="869.123"/>
            </g>
            <g transform="matrix(0.890406,0,0,0.890406,164.39,164.39)">
                <path d="M1719.39,2215.15L1807.18,2267.77C1738.91,2689.1 1619.73,2970.38 1500.5,2970.38C1381.33,2970.38 1261.81,2689.24 1193.23,2268.25L1280.94,2215.69C1318.76,2598.11 1391.67,2852.78 1500.5,2852.78C1609.37,2852.78 1681.88,2597.87 1719.39,2215.15ZM1731.08,2076.51C1743.58,1901.78 1749.79,1706.48 1749.79,1500.49C1749.79,1294.42 1743.58,1099.05 1731.06,924.197L1827.15,872.035C1851.27,1062.61 1865.27,1275.69 1865.27,1500.49C1865.27,1725.2 1851.28,1938.21 1827.19,2128.67L1731.08,2076.51ZM1173.04,2128.62C1148.8,1937.92 1134.73,1724.8 1134.73,1500.01C1134.73,1275.45 1148.77,1062.63 1172.97,872.157L1269.12,924.352C1256.49,1099.19 1250.21,1294.49 1250.21,1500.49C1250.21,1706.48 1256.49,1901.78 1269.11,2076.52L1173.04,2128.62ZM1193.02,733.316C1261.59,311.841 1381.22,30.595 1500.5,30.595C1619.78,30.595 1739.02,312.132 1807.28,733.807L1719.45,786.422C1681.95,403.332 1609.42,148.186 1500.5,148.186C1391.49,148.186 1318.51,403.726 1280.75,787.244L1193.02,733.316Z" style="fill:rgb(213,186,15);"/>
            </g>
            <g transform="matrix(-2.02817,2.89653,1.18622,0.830598,1905.81,-1934.66)">
                <ellipse cx="861.499" cy="1130.88" rx="80.051" ry="869.123"/>
            </g>
            <g transform="matrix(0.890406,0,0,0.890406,164.39,164.39)">
                <path d="M2191.7,1583.25C2569.65,1923.79 2780.73,2234.09 2704.35,2343.17C2616.62,2468.47 2149.39,2328.77 1609.04,2006.15L1707.79,1939.13C2165.21,2227.44 2530.74,2386.1 2608.02,2275.73C2677.32,2176.75 2464.07,1933.97 2111.04,1645.97L2191.7,1583.25ZM985.989,1431.29C1099.38,1520.17 1224.24,1612.33 1356.73,1705.1C1440.55,1763.79 1523.1,1819.7 1603.33,1872.09L1500.02,1939.17C1430.75,1895.41 1360.73,1848.88 1290.49,1799.7C1150.07,1701.38 1019.93,1600.26 902.931,1500.47L985.989,1431.29ZM1500.14,1061.86C1569.26,1105.55 1639.28,1152.09 1709.52,1201.28C1849.93,1299.6 1980.1,1400.68 2097.06,1500.34L2014.69,1568.96C1901.3,1480.07 1776.38,1387.87 1643.84,1295.06C1560.14,1236.46 1477.71,1180.63 1397.61,1128.31L1500.14,1061.86ZM809.399,1418.48C430.967,1077.31 219.772,766.165 296.22,656.986C384.023,531.59 851.558,672.199 1392.25,995.505L1294.26,1061.96C836.177,773.077 469.916,613.937 392.545,724.433C323.157,823.531 537.035,1066.8 890.738,1355.17L809.399,1418.48Z" style="fill:rgb(189,32,196);"/>
            </g>
            <g transform="matrix(2.02817,2.89653,-1.18622,0.830598,1094.73,-1933.93)">
                <ellipse cx="861.499" cy="1130.88" rx="80.051" ry="869.123"/>
            </g>
            <g transform="matrix(3.05154,4.35805,-1.78475,1.2497,889.975,-3666.98)">
                <ellipse cx="861.499" cy="1130.88" rx="80.051" ry="869.123" style="fill:none;"/>
            </g>
            <g transform="matrix(3.05154,-4.35805,1.78475,1.2497,-3146.7,3841.94)">
                <ellipse cx="861.499" cy="1130.88" rx="80.051" ry="869.123" style="fill:none;"/>
            </g>
            <g transform="matrix(2.1091,3.01211,-1.23355,0.86374,1077.75,-2071.64)">
                <path d="M861.499,261.753C905.681,261.753 950.07,651.487 950.07,1131.17C950.07,1610.85 905.681,2000 861.499,2000C817.318,2000 773.169,1610.19 773.169,1130.51C773.169,650.83 817.318,261.753 861.499,261.753ZM861.499,331.283C902.146,331.283 922.104,689.569 922.104,1130.88C922.104,1572.18 902.146,1930.47 861.499,1930.47C820.853,1930.47 801.134,1572.18 801.134,1130.88C801.134,689.569 820.853,331.283 861.499,331.283Z" style="fill:rgb(38,190,32);"/>
            </g>
        </g>
    </g>
    <g transform="matrix(1.79807,0,0,1.79807,-269.544,-94.6536)">
        <path d="M984.133,773.734C1046.57,773.734 1097.27,824.427 1097.27,886.867C1097.27,949.307 1046.57,1000 984.133,1000C921.693,1000 871,949.307 871,886.867C871,824.427 921.693,773.734 984.133,773.734ZM984.133,786.179C1039.7,786.179 1084.82,831.296 1084.82,886.867C1084.82,942.439 1039.7,987.555 984.133,987.555C928.561,987.555 883.445,942.439 883.445,886.867C883.445,831.296 928.561,786.179 984.133,786.179Z" style="fill:white;"/>
    </g>
    <g transform="matrix(0.877034,0,0,0.877034,636.882,722.187)">
        <circle cx="984.133" cy="886.867" r="113.133" style="fill:white;"/>
    </g>
    <path d="M1482.83,1949.99L1625.65,1857.26" style="fill:none;"/>
</svg>
